# xmcd CD database file
#
# Track frame offsets:
#	150
#	16181
#	32247
#	49594
#	66531
#	81682
#	98024
#	113219
#	128798
#	145518
#	162027
#	179796
#	196074
#	213997
#
# Disc length: 3180 seconds
#
# Revision: 0
# Processed by: cddbd v1.5.1PL2 Copyright (c) Steve Scherf et al.
# Submitted via: CDex 1.51
#
DISCID=c30c6a0e
DTITLE=Hugo - Hartland
DYEAR=2006
DGENRE=Country
TTITLE0=Weer
TTITLE1=Hillside Lullaby
TTITLE2=Poppe op jou pelmit
TTITLE3=Verspeelde Kanse
TTITLE4=Waar is jy
TTITLE5=Beste Henry
TTITLE6=Selfde ou strate
TTITLE7=Donker wolk
TTITLE8=Twee sagte hande
TTITLE9=Trane van verandering
TTITLE10=Springbokheld
TTITLE11=Cowboy kitaar
TTITLE12=Sylvia's Mother
TTITLE13=Ekstra
EXTD=YEAR: 2006
EXTT0=
EXTT1=
EXTT2=
EXTT3=
EXTT4=
EXTT5=
EXTT6=
EXTT7=
EXTT8=
EXTT9=
EXTT10=
EXTT11=
EXTT12=
EXTT13=
PLAYORDER=
